<?xml version="1.0" encoding="UTF-8"?>
<svg id="Layer_2" data-name="Layer 2" xmlns="http://www.w3.org/2000/svg" viewBox="0 0 1053.27 586.5">
  <defs>
    <style>
      .cls-1 {
        fill: #231f20;
        stroke-width: 0px;
      }
    </style>
  </defs>
  <g id="Layer_1-2" data-name="Layer 1">
    <path class="cls-1" d="M589.06,343.15c102.55,148.76,148.94,249.29,275.34,243.07,126.41-6.22,115.72-166.37,149.1-257.27,33.38-90.9,52.7-184.6,29.77-189.05-22.93-4.45-48.05,142.81-70.7,134.18-28.22-10.76,29.91-218.24-15.02-224.4-44.93-6.16-39.23,190.8-67.65,188.22C861.48,235.32,883.08,0,833.57,0s3.58,235.4-34.36,241.17-37.55-218.64-92.13-199.15c-54.58,19.49,59.1,296.62,30.48,314.95-60.25,38.61-114.52-128.55-169.01-74.17-16.4,16.37,20.5,60.36,20.5,60.36Z"/>
    <path class="cls-1" d="M464.21,343.15c-102.55,148.76-148.94,249.29-275.34,243.07-126.41-6.22-115.72-166.37-149.1-257.27C6.38,238.06-12.94,144.36,9.99,139.91c22.93-4.45,48.05,142.81,70.7,134.18,28.22-10.76-29.91-218.24,15.02-224.4,44.93-6.16,39.23,190.8,67.65,188.22C191.78,235.32,170.18,0,219.69,0s-3.58,235.4,34.36,241.17,37.55-218.64,92.13-199.15c54.58,19.49-59.1,296.62-30.48,314.95,60.25,38.61,114.52-128.55,169.01-74.17,16.4,16.37-20.5,60.36-20.5,60.36Z"/>
  </g>
</svg>